<?xml version="1.0" encoding="utf-8"?>
<!-- Generator: Adobe Illustrator 13.0.0, SVG Export Plug-In  -->
<!DOCTYPE svg PUBLIC "-//W3C//DTD SVG 1.1//EN" "http://www.w3.org/Graphics/SVG/1.1/DTD/svg11.dtd" [
	<!ENTITY ns_flows "http://ns.adobe.com/Flows/1.0/">
]>
<svg version="1.1"
	 xmlns="http://www.w3.org/2000/svg" xmlns:xlink="http://www.w3.org/1999/xlink" xmlns:a="http://ns.adobe.com/AdobeSVGViewerExtensions/3.0/"
	 x="0px" y="0px" width="533px" height="102px" viewBox="-0.551 -0.572 533 102" enable-background="new -0.551 -0.572 533 102"
	 xml:space="preserve">
<defs>
</defs>
<polygon fill="#FFCD05" points="34.443,23.809 28.829,31.447 7.504,17.405 22.844,6.372 "/>
<polygon fill="#FFCD05" points="21.833,36.89 20.276,41.486 5.914,39.334 8.069,32.138 "/>
<polygon fill="#FFCD05" points="21.957,75.868 15.061,66.353 27.618,57.789 32.676,62.674 "/>
<polygon fill="#CB2027" points="45.435,5.468 34.396,7.42 38.308,18.045 46.089,15.837 "/>
<polygon fill="#CB2027" points="24.241,55.475 4.692,64.985 0,46.441 22.952,45.262 "/>
<polygon fill="#CB2027" points="20.695,34.555 19.85,38.048 1.51,32.982 3.007,27.119 "/>
<polygon fill="#CB2027" points="66.429,61.832 68.708,57.604 77.822,63.349 73.643,68.499 "/>
<polygon fill="#CB2027" points="64.662,25.299 60.761,23.698 71.815,6.316 77.966,10.505 "/>
<polygon fill="#FFCD05" points="81.723,63.065 86.621,65.764 88.14,58.878 83.033,57.026 "/>
<polygon fill="#CB2027" points="11.317,18.48 8.948,21.174 23.361,29.621 24.381,27.597 "/>
<polygon fill="#CB2027" points="78.476,31.881 74.583,27.228 84.224,18.196 87.883,25.853 "/>
<polygon fill="#CB2027" points="89.847,37.543 88.353,49.197 73.339,46.833 73.003,39.811 "/>
<polygon fill="#FFCD05" points="82.428,41.271 81.348,35.301 94.196,32.223 93.586,40.686 "/>
<polygon fill="#FFCD05" points="65.6,22.353 67.272,25.282 77.783,15.191 73.92,12.012 "/>
<path fill="#CB2027" d="M36.987,81.449c3.752-2.01,1.142-4.719,1.142-4.719s0.966-0.757,0.288-1.365c-0.676-0.604-1.333,0-1.333,0
	s-0.213-0.604-0.832-0.604s-0.929,0.453-0.929,0.453s-0.523-0.303-1.102,0c-0.581,0.304-0.388,0.853-0.388,0.853
	s-0.579-0.076-0.812,0.322c-0.23,0.398-0.021,0.871-0.021,0.871s-0.308-0.057-0.578,0.342c-0.271,0.399-0.116,0.664-0.116,0.664
	s-0.833,0-0.929,0.758c-0.098,0.758,0.503,0.909,0.503,0.909s-0.272,0.114,0.153,0.738c0.426,0.626,0.929,0.322,0.929,0.322
	s0.098,0.304,0.716,0.304s0.676-0.209,0.676-0.209s0.349,0.419,0.947,0.456c0.175,0.019,0,0.247,0,0.247l-0.348,0.32l-1.044,0.037
	c0,0-1.159-0.909-1.643-1.003c-0.484-0.095-0.659,0.151-0.659,0.151s-3.654-2.35-3.888-2.425c-0.193-0.057-0.193-0.644-0.152-0.854
	c0.038-0.208-0.271-0.189-0.098-1.005c0-0.169-0.481-0.018-0.444,0.228c0.038,0.246-0.02,0.36-0.253,0.36
	c-0.232,0-0.077-0.36-1.41-0.436c-0.291,0.094-0.169,0.102-0.273,0.191c-0.139,0.262-0.193,0.213-0.348,0.528
	c-0.153,0.316,0.111,0.813,0.33,0.93c0.218,0.113,0.542-0.108,1.2,0.51c0.115,0.202,0.571,0.141,0.636,0.153
	c0.298,0.479,1.812,1.875,3.657,3.088c-0.054,0.101-0.155,0.196-0.041,0.398c0.335,0.518-0.084,0.492,0.213,0.72
	c0.864,0.48,2.031,0.209,2.031,0.209s0.155,0.587,0.504,0.7c-0.156,0.279-0.041,0.377-0.041,0.377s-3.404,1.903-7.927,3.054
	c-0.947,0.423-0.343,0.719-0.137,1.022c0.208,0.304,2.998,2.06,4.093,2.388c-0.771,0.781-2.282,2.446-3.029,2.596
	c-2.062,0.481-2.805,0.985-3.063,1.176s-0.22,0.624,0.04,0.739c0.257,0.112,1.036,0.145,1.668,0.057
	c0.567-0.191,1.922-0.791,1.818-1.155c1.729-0.241,5.049-2.426,5.049-2.426l1.623,0.436c0,0,0.271,4.889-2.127,6.441
	c-0.334,0.216-0.04,0.795-0.04,0.795s0.936,1.139,1.335,1.252c0.22,0.088,0.51,0.052,0.872,0c0.656-0.127,0.399-0.727,0.153-0.928
	c-0.244-0.203-0.741-0.461-0.792-0.55c-0.051-0.09-0.033-0.253,0.058-0.378c0.812-0.635,2.366-3.906,3.282-5.978
	c0.102,0.039,3.776,0.721,4.175,0.671c0.827-0.064,0.678-0.431,0.51-0.72c-2.089-3.261-2.437-6.897-2.437-6.897
	s0.142-0.429,0.232-0.604c0.089-0.179-0.063-0.816,0.038-0.893c0.484-0.615,0.24-0.879,0.408-1.118
	c0.166-0.24,1.034-0.271,1.167-0.316c-0.102,0.035,0.661-0.052,0.457-0.537c-0.126-0.296,0.277-0.317-0.116-0.72
	c1.752-1.58,1.659-2.448,2.455-4.092c0.071-0.154,0.193-0.116,0.202,0.167c0.27,0.446,0.011,1.662,3.417,4.72
	c0.282,0.873-1.28,6.121-1.28,6.121s0.446,0.355,1.334,0.567c0,0.305-0.095,9.209-0.095,9.209s-1.294,0.494-1.683,0.722
	c-0.386,0.227-0.597,1.333,0.064,1.573c0.438,0.074,1.157,0.056,1.601-0.02c0.445-0.075,1.64-1.101,1.776-1.346
	c0.135-0.244-0.115-1.187,0.038-1.288c0.3-0.644,1.155-6.075,1.297-6.227c0.143-0.152,0.251,0.055,0.251,0.055
	s0.813,6.93,1.006,7.441c0.195,0.512,1.142,1.289,1.354,1.347c0.211,0.056,0.838,0.146,1.663-0.021
	c0.927-0.354,0.335-1.377,0.193-1.477c-0.142-0.102-1.044-0.696-1.237-0.722c0.18-1.92-0.044-8.931-0.02-9.209
	c1.031-0.215,1.412-0.549,1.412-0.549s-1.676-5.837-1.547-6.026c3.468-2.88,3.204-4.882,3.268-5.096
	c0.064-0.217,0.251-0.228,0.251-0.228s0.259,0.214,0.445,0.644c0.76,1.894,2.166,3.38,2.166,3.38s-0.301,0.347-0.221,0.491
	c0.351,0.632,0.042,0.676,0.266,1.024c0.144,0.221,1.191,0.12,1.191,0.12s0.04,0.809,0.505,1.084
	c0.565,4.335-2.399,8.616-2.515,8.781c-0.505,0.758-0.071,0.935,0.483,0.872c0.555-0.063,4.622-0.879,4.622-0.879
	s1.361,3.063,3.075,5.551c0.193,0.179,0.078,0.42,0.078,0.42s-0.664,0.579-0.832,0.832c-0.168,0.256,0.089,0.448,0.153,0.511
	c0.066,0.065,0.51,0.21,0.988,0.058c0.475-0.15,1.022-1.018,1.293-1.308c0.27-0.29-0.133-0.661-0.133-0.661s-0.341-0.381-0.599-0.53
	c-0.493-0.986-1.455-5.042-1.455-5.534c0.543-0.113,1.763-0.531,1.763-0.531s3.028,1.928,4.951,2.14
	c0.18,0.141,0.249,0.632,0.559,0.759c0.311,0.128,2.056,0.487,2.843,0.438c0.787-0.052,0.49-0.707,0.155-0.947
	c-0.334-0.241-2.301-0.803-2.494-0.815c-1.883-1.011-3.421-2.533-3.475-2.584c1.87-0.758,3.302-1.881,3.648-2.211
	c0.682-0.644,0.348-0.827-0.298-0.952c-3.75-0.771-8.062-3.222-8.062-3.222s-0.213-0.228-0.072-0.696
	c0.684,0.29,1.142,0.235,1.142,0.235s0.548,0.055,0.754-0.16c0.122-0.271-0.091-0.214,0.211-0.586c0.133-0.267,0.006-0.5,0.006-0.5
	s3.489-1.799,4.868-3.972c0.091-0.127,0.246,0.056,0.659-0.248s0.625-0.48,1.18-0.53c0.554-0.049,0.399-0.649,0.386-0.89
	c-0.013-0.241-0.309-0.328-0.348-0.644c-0.103-0.279-0.772-0.076-0.967,0c-0.193,0.074-0.657,0.391-0.812,0.302
	c-0.153-0.087-0.071,0-0.136-0.302c-0.063-0.304-0.388-0.406-0.426-0.267c-0.038,0.139,0.098,0.449,0.021,0.587
	c-0.08,0.139-0.195,0.646-0.118,0.834c0.078,0.191-0.25,0.4-0.25,0.4s-1.579,1.389-4.621,2.916
	c-0.067-0.393-0.149-0.315-0.445-0.417c-0.295-0.103-0.621,0.114-0.621,0.114s-0.494,0.38-0.675,0.492
	c-0.179,0.112-0.554,0.228-0.813,0.191c-0.257-0.038-0.443-0.418-0.443-0.418s-0.046-0.122-0.018-0.285
	c3.065-1.669,1.869-4.062,1.869-4.062s0.393,0.409,0.779,0.157c0.244-0.159,0.06-0.566,0.06-0.566s2.151,0.024,0.349,2.312
	c1.545-0.985,1.178-2.048,1.178-2.048s0.956,0.411-0.387,2.143c2.681-2.212,0.289-3.582-0.521-3.468
	c-0.814,0.114-1.086,0.455-1.086,0.455s-0.353-0.455-0.741-0.29c-0.386,0.164-0.168,0.555-0.168,0.555s-0.61-1.268-2.351-1.283
	c-0.698-0.005-3.142,0.07-2.25,1.259c-0.268,0.197-0.686,0.809-0.734,1.502c-0.186,2.619,2.379,3.315,2.379,3.315l-0.02,0.399
	c0,0-0.516,0.095-0.579-0.284c-0.583-0.545-0.813-0.809-1.331-0.772c-0.244,0.039-0.321,0.039-0.437,0.153
	c-2.038-1.769-2.199-3.474-2.199-3.474s0.199-1.339-0.133-1.592c-0.338-0.255-0.287-0.448-0.93-0.437
	c-0.646,0.013-0.969,0.738-0.969,0.738s-0.076,0.545-0.309,0.76c-0.232,0.214-2.332,4.357-4.356,4.863
	c-0.375,0.112-0.362-0.107-0.362-0.107s-0.057-0.38-0.02-0.444c1.78-0.782,1.741-3.007,1.741-3.007s0.4-0.067,0.425-0.32
	c0.027-0.253-0.18-2.697-3.133-2.748c-2.951-0.05-3.171,2.666-3.133,2.881c0.04,0.215,0.408,0.283,0.408,0.283
	s-0.331,1.764,1.758,2.861c0,0.114,0.014,0.429,0.014,0.429s0.078,0.263-0.331,0.071c-1.45-0.682-3.455-3.475-3.455-3.475
	s-0.16-0.277-0.25-0.606c-0.437-0.784-0.525-1.8-1.053-2.254c-0.528-0.454-1.189-0.222-1.448,0.127
	c-0.329,0.438-0.019,1.362-0.149,1.654c-0.128,0.29-1.146,3.44-2.694,4.249c-0.248-0.204-0.361-0.162-0.67-0.119
	c-0.279,0.039-0.755,0.52-0.909,0.646c-0.155,0.125-0.503,0.322-0.503,0.322S36.949,82.017,36.987,81.449"/>
<polygon fill="#FFCD05" points="53.136,0 64.048,4.36 58.005,18.307 51.123,16.878 "/>
<polygon fill="#FFCD05" points="45.962,5.794 45.275,0.245 38.807,3.049 40.302,8.272 "/>
<circle fill="#FFCD05" stroke="#FFD200" stroke-width="0.2955" cx="47.924" cy="43.897" r="20.122"/>
<path fill="#FFFFFF" stroke="#FFFFFF" stroke-width="0.2955" d="M40.984,37.768c-0.956-0.217-1.933-0.326-2.936-0.326
	c-2.051,0-3.845,0.319-5.375,0.958c-1.532,0.638-2.299,1.369-2.299,2.19c0,0.426,0.244,0.901,0.731,1.426
	c0.486,0.524,1.695,1.383,3.624,2.575c2.296,1.437,3.763,2.522,4.396,3.255c0.634,0.733,0.952,1.42,0.952,2.063v0.198
	c-0.067,0.71-0.949,1.377-2.646,2.001c-1.699,0.624-3.525,0.936-5.483,0.936c-1.183,0-2.168-0.113-2.965-0.341l0.697-1.348
	c0.689,0.294,1.541,0.44,2.552,0.44c1.353,0,2.548-0.246,3.59-0.737c1.04-0.491,1.558-1.079,1.558-1.76v-0.169
	c-0.046-0.303-0.301-0.676-0.765-1.121c-0.463-0.445-1.587-1.245-3.376-2.397c-2.26-1.467-3.724-2.538-4.389-3.214
	c-0.667-0.675-1.04-1.269-1.115-1.78l-0.028-0.241c0-1.191,1.297-2.364,3.887-3.519c2.592-1.153,5.679-1.915,9.265-2.283
	L40.984,37.768z"/>
<path fill="#FFFFFF" stroke="#FFFFFF" stroke-width="0.2955" d="M55.369,37.768c-0.956-0.217-1.934-0.326-2.936-0.326
	c-2.053,0-3.845,0.319-5.377,0.958c-1.532,0.638-2.297,1.369-2.297,2.19c0,0.426,0.244,0.901,0.729,1.426
	c0.488,0.524,1.696,1.383,3.625,2.575c2.297,1.437,3.763,2.522,4.397,3.255s0.952,1.42,0.952,2.063v0.198
	c-0.067,0.71-0.949,1.377-2.646,2.001c-1.699,0.624-3.526,0.936-5.484,0.936c-1.182,0-2.171-0.113-2.964-0.341l0.696-1.348
	c0.69,0.294,1.541,0.44,2.553,0.44c1.353,0,2.548-0.246,3.59-0.737c1.038-0.491,1.559-1.079,1.559-1.76v-0.169
	c-0.046-0.303-0.301-0.676-0.765-1.121c-0.463-0.445-1.59-1.245-3.377-2.397c-2.259-1.467-3.723-2.538-4.388-3.214
	c-0.67-0.675-1.04-1.269-1.115-1.78l-0.029-0.241c0-1.191,1.295-2.364,3.888-3.519c2.592-1.153,5.679-1.915,9.264-2.283
	L55.369,37.768z"/>
<path fill="#FFFFFF" stroke="#FFFFFF" stroke-width="0.2955" d="M65.327,42.705l-0.313,1.193l-1.104,0.695l-0.2,8.723l-1.192,0.2
	l-0.327-8.257l-3.8,2.014l-0.084,1.829l0.281,6.994l-0.778,0.581c-0.55-9.03-0.843-13.916-0.881-14.652l-0.171-6.086l1.633-0.497
	l-0.116,6.34c0,0.643,0.04,2.024,0.116,4.143l3.8-1.829c-0.188-5.202-0.283-8.224-0.283-9.065l0.057-2.894l2.439-0.935
	c-0.188,2.685-0.346,6.771-0.468,12.255L65.327,42.705z"/>
<path fill="#CB2027" d="M137.123,36.646c-2.005-0.457-4.062-0.686-6.166-0.686c-4.31,0-8.072,0.671-11.29,2.011
	c-3.216,1.34-4.825,2.875-4.825,4.602c0,0.893,0.512,1.891,1.535,2.993c1.022,1.103,3.56,2.904,7.61,5.407
	c4.826,3.018,7.904,5.297,9.234,6.835c1.33,1.54,1.996,2.984,1.996,4.334v0.417c-0.14,1.489-1.991,2.888-5.555,4.2
	c-3.565,1.311-7.402,1.965-11.514,1.965c-2.482,0-4.557-0.238-6.224-0.715l1.459-2.83c1.45,0.616,3.237,0.923,5.362,0.923
	c2.84,0,5.351-0.516,7.536-1.549c2.185-1.032,3.277-2.264,3.277-3.694v-0.357c-0.101-0.635-0.636-1.419-1.609-2.353
	c-0.973-0.934-3.335-2.611-7.09-5.034c-4.746-3.078-7.819-5.327-9.218-6.747c-1.399-1.419-2.18-2.666-2.339-3.738l-0.058-0.507
	c0-2.502,2.72-4.964,8.16-7.387c5.442-2.422,11.924-4.021,19.452-4.795L137.123,36.646z"/>
<path fill="#CB2027" d="M137.241,37.867c1.173-0.158,2.959-0.237,5.361-0.237c2.542,0,5.188,0.124,7.939,0.372
	c2.75,0.249,5.267,0.636,7.551,1.162c2.282,0.527,3.872,1.127,4.766,1.802c0.893,0.675,1.34,1.47,1.34,2.383
	c0,2.244-1.847,4.557-5.541,6.94c-3.693,2.383-7.296,3.892-10.812,4.527l0.745,9.473l-3.307,1.161l-4.885-25.825l-2.741-0.297
	L137.241,37.867z M147.249,48.978c0.556,0.08,1.003,0.12,1.341,0.12c2.601,0,5.336-0.75,8.206-2.249
	c2.87-1.499,4.304-2.845,4.304-4.036c0-0.854-0.947-1.599-2.844-2.234c-1.897-0.635-5.894-0.953-11.989-0.953L147.249,48.978z"/>
<path fill="#CB2027" d="M185.377,43.11v0.417c0,3.157-0.774,10.952-2.323,23.383l-1.698,1.459l-0.118-8.608
	c-0.795,2.165-1.991,4.131-3.59,5.898c-1.599,1.768-2.766,2.651-3.5,2.651h-0.596c-2.125,0-3.798-0.889-5.02-2.667
	c-1.221-1.776-1.831-3.897-1.831-6.359v-0.924c0-4.07,1.061-7.476,3.187-10.216c2.125-2.741,4.358-4.111,6.702-4.111
	c1.688,0,3.087,0.815,4.2,2.443l0.268-2.562c0-0.734-0.298-1.439-0.893-2.115c-0.597-0.675-1.579-1.013-2.95-1.013
	c-2.799,0-6.136,1.182-10.009,3.545l-0.505-1.639c3.375-3.455,5.827-5.56,7.356-6.314s2.949-1.132,4.26-1.132
	c2.602,0,4.428,1.073,5.48,3.217C184.852,40.608,185.377,42.157,185.377,43.11z M181.117,55.174v-0.239
	c0-1.688-0.368-3.063-1.102-4.125c-0.735-1.062-1.669-1.594-2.801-1.594c-1.747,0-3.241,0.993-4.483,2.979
	c-1.24,1.986-1.86,3.981-1.86,5.987v0.298c0,1.667,0.367,3.033,1.102,4.095c0.734,1.063,1.669,1.594,2.801,1.594
	c1.727,0,3.216-0.998,4.468-2.993C180.492,59.18,181.117,57.18,181.117,55.174z"/>
<path fill="#CB2027" d="M211.083,42.932l-0.387,24.157l-2.234,2.055l-17.396-18.706l-1.042,18.051l-1.401-1.222l-0.357-24.693
	l20.196,14.923l0.298-14.387L211.083,42.932z"/>
<path fill="#CB2027" d="M221.032,37.301c0.634-1.052,1.39-1.578,2.264-1.578c0.535,0,1.042,0.303,1.519,0.909
	c0.478,0.606,0.715,1.177,0.715,1.712c0,1.232-0.671,2.468-2.01,3.709c-1.342,1.241-2.727,1.861-4.156,1.861
	c-1.191,0-2.492-0.516-3.902-1.549s-2.114-2.413-2.114-4.14c0-0.815,0.219-1.684,0.655-2.607c0.436-0.923,1.127-1.613,2.07-2.07
	c0.942-0.457,1.922-0.685,2.934-0.685c1.549,0,2.651,0.467,3.306,1.399l-1.459,0.239c-0.556-0.239-1.191-0.357-1.906-0.357
	c-1.013,0-1.896,0.249-2.651,0.745c-0.754,0.497-1.132,1.122-1.132,1.876c0,0.774,0.367,1.579,1.103,2.413
	c0.735,0.833,1.688,1.25,2.86,1.25c1.051,0,1.865-0.372,2.441-1.117s0.864-1.326,0.864-1.743c0-0.297-0.169-0.447-0.507-0.447
	C221.687,37.123,221.39,37.183,221.032,37.301z M221.687,46.834c0.12,1.33,0.18,2.73,0.18,4.2c0,6.176-0.875,12.014-2.622,17.514
	l-1.817,0.12c0.279-5.282,0.418-9.224,0.418-11.826c0-3.733-0.22-6.424-0.655-8.072L221.687,46.834z"/>
<path fill="#CB2027" d="M247.096,46.208c-1.708-0.396-3.545-0.596-5.512-0.596c-2.858,0-5.207,0.417-7.044,1.251
	c-1.837,0.833-2.755,1.836-2.755,3.008c0,0.615,0.342,1.291,1.028,2.025c0.685,0.735,2.386,1.897,5.107,3.485
	c3.354,1.966,5.501,3.49,6.434,4.572c0.934,1.083,1.399,2.12,1.399,3.113v0.297c-0.099,1.073-1.479,2.091-4.14,3.053
	c-2.662,0.963-5.511,1.445-8.55,1.445c-1.667,0-3.176-0.179-4.526-0.536l0.924-2.8c1.469,0.576,3.098,0.864,4.885,0.864
	c1.925,0,3.604-0.303,5.034-0.909c1.429-0.606,2.144-1.405,2.144-2.398v-0.239c-0.06-0.476-0.452-1.052-1.176-1.728
	c-0.726-0.674-2.469-1.906-5.228-3.693c-1.748-1.132-3.172-2.086-4.274-2.859c-1.102-0.774-2.09-1.614-2.964-2.517
	c-0.874-0.904-1.312-1.684-1.312-2.338v-0.357c0-1.807,2.001-3.594,6.003-5.362c4.001-1.767,8.791-2.949,14.372-3.545
	L247.096,46.208z"/>
<path fill="#CB2027" d="M266.903,71.467l-4.29-0.656l0.447-11.706l-9.354,1.817l-0.416,9.144l-2.442-0.833l-1.342-27.404
	l5.184-0.179l-0.654,17.127l9.084-1.995l0.535-20.196l2.443,0.923L266.903,71.467z"/>
<path fill="#CB2027" d="M318.881,36.646c-2.006-0.457-4.062-0.686-6.166-0.686c-4.309,0-8.072,0.671-11.288,2.011
	c-3.218,1.34-4.827,2.875-4.827,4.602c0,0.893,0.512,1.891,1.535,2.993c1.021,1.103,3.56,2.904,7.609,5.407
	c4.826,3.018,7.904,5.297,9.234,6.835c1.33,1.54,1.996,2.984,1.996,4.334v0.417c-0.139,1.489-1.991,2.888-5.556,4.2
	c-3.563,1.311-7.401,1.965-11.512,1.965c-2.482,0-4.558-0.238-6.226-0.715l1.459-2.83c1.45,0.616,3.236,0.923,5.361,0.923
	c2.84,0,5.353-0.516,7.536-1.549c2.185-1.032,3.277-2.264,3.277-3.694v-0.357c-0.1-0.635-0.636-1.419-1.609-2.353
	c-0.973-0.934-3.335-2.611-7.088-5.034c-4.748-3.078-7.82-5.327-9.22-6.747c-1.399-1.419-2.179-2.666-2.338-3.738l-0.06-0.507
	c0-2.502,2.72-4.964,8.162-7.387c5.439-2.422,11.924-4.021,19.45-4.795L318.881,36.646z"/>
<path fill="#CB2027" d="M345.094,60.387l-0.834,1.698c-2.324,0.656-4.746,0.983-7.269,0.983c-4.43,0-8.157-0.893-11.186-2.681
	c-3.027-1.788-4.542-4.051-4.542-6.792c0-1.945,0.849-4.075,2.547-6.389c1.697-2.313,4.175-4.156,7.432-5.525
	c3.256-1.37,6.921-2.056,10.991-2.056h0.237l0.567,5.243c-4.468,0.279-8.188,1.519-11.155,3.724
	c-2.969,2.204-4.453,4.428-4.453,6.672c0,1.768,1.419,3.142,4.26,4.125c2.839,0.983,5.749,1.474,8.728,1.474
	C342.243,60.863,343.802,60.705,345.094,60.387z"/>
<path fill="#CB2027" d="M364.991,71.467l-4.29-0.656l0.447-11.706l-9.354,1.817l-0.417,9.144l-2.441-0.833l-1.342-27.404
	l5.184-0.179l-0.656,17.127l9.086-1.995l0.536-20.196l2.442,0.923L364.991,71.467z"/>
<path fill="#CB2027" d="M376.577,50.735c0-0.556,0.477-1.455,1.431-2.696c0.952-1.24,1.618-1.98,1.994-2.219
	c0.378-0.238,0.825-0.422,1.342-0.551c0.517-0.129,1.021-0.194,1.519-0.194c1.409,0,2.402,0.63,2.979,1.892
	c0.576,1.261,0.864,2.805,0.864,4.632c0,2.899-0.532,5.605-1.595,8.116c-1.063,2.513-2.902,4.632-5.525,6.36
	c-2.621,1.728-4.845,2.592-6.671,2.592c-1.093,0-2.289-0.785-3.589-2.354c-1.302-1.568-1.952-3.752-1.952-6.553
	c0-1.846,0.362-4.105,1.088-6.776c0.724-2.67,1.996-4.925,3.813-6.762c1.816-1.836,4.225-3.073,7.224-3.709l-1.579,1.996
	c-2.581,1.093-4.651,2.795-6.211,5.108c-1.559,2.314-2.338,5.347-2.338,9.1c0,3.654,0.963,5.59,2.89,5.808l0.715,0.06
	c2.58,0,4.815-1.3,6.701-3.902c1.886-2.601,2.831-5.202,2.831-7.804c0-0.993-0.141-1.866-0.418-2.621
	c-0.278-0.755-0.58-1.33-0.908-1.728c-0.327-0.397-0.641-0.596-0.938-0.596c-0.498,0-1.342,0.586-2.533,1.758
	C377.174,50.229,376.796,50.577,376.577,50.735z"/>
<path fill="#CB2027" d="M397.876,50.735c0-0.556,0.477-1.455,1.431-2.696c0.952-1.24,1.618-1.98,1.994-2.219
	c0.378-0.238,0.825-0.422,1.342-0.551c0.516-0.129,1.021-0.194,1.519-0.194c1.409,0,2.402,0.63,2.979,1.892
	c0.576,1.261,0.864,2.805,0.864,4.632c0,2.899-0.532,5.605-1.595,8.116c-1.063,2.513-2.903,4.632-5.525,6.36
	c-2.621,1.728-4.846,2.592-6.671,2.592c-1.093,0-2.289-0.785-3.59-2.354c-1.302-1.568-1.951-3.752-1.951-6.553
	c0-1.846,0.361-4.105,1.087-6.776c0.725-2.67,1.996-4.925,3.813-6.762c1.817-1.836,4.226-3.073,7.225-3.709l-1.579,1.996
	c-2.582,1.093-4.651,2.795-6.212,5.108c-1.559,2.314-2.338,5.347-2.338,9.1c0,3.654,0.964,5.59,2.891,5.808l0.715,0.06
	c2.58,0,4.815-1.3,6.701-3.902c1.886-2.601,2.83-5.202,2.83-7.804c0-0.993-0.14-1.866-0.417-2.621
	c-0.278-0.755-0.581-1.33-0.908-1.728s-0.641-0.596-0.938-0.596c-0.497,0-1.341,0.586-2.532,1.758
	C398.472,50.229,398.095,50.577,397.876,50.735z"/>
<path fill="#CB2027" d="M427.842,54.816l-1.579,6.702l-14.953,1.28l-0.745-24.216l3.961-3.277l-1.012,23.919L427.842,54.816z"/>
<path fill="#CB2027" d="M447.411,71.467l-4.289-0.656l0.447-11.706l-9.354,1.817l-0.417,9.144l-2.441-0.833l-1.341-27.404
	l5.184-0.179l-0.656,17.127l9.086-1.995l0.535-20.196l2.443,0.923L447.411,71.467z"/>
<path fill="#CB2027" d="M458.997,50.735c0-0.556,0.478-1.455,1.431-2.696c0.953-1.24,1.619-1.98,1.995-2.219
	c0.378-0.238,0.825-0.422,1.341-0.551c0.517-0.129,1.021-0.194,1.52-0.194c1.408,0,2.402,0.63,2.979,1.892
	c0.576,1.261,0.863,2.805,0.863,4.632c0,2.899-0.531,5.605-1.594,8.116c-1.063,2.513-2.903,4.632-5.525,6.36
	c-2.621,1.728-4.846,2.592-6.672,2.592c-1.092,0-2.289-0.785-3.589-2.354c-1.302-1.568-1.952-3.752-1.952-6.553
	c0-1.846,0.362-4.105,1.088-6.776c0.725-2.67,1.996-4.925,3.813-6.762c1.816-1.836,4.226-3.073,7.224-3.709l-1.578,1.996
	c-2.582,1.093-4.652,2.795-6.212,5.108c-1.559,2.314-2.338,5.347-2.338,9.1c0,3.654,0.964,5.59,2.891,5.808l0.715,0.06
	c2.579,0,4.814-1.3,6.701-3.902c1.886-2.601,2.83-5.202,2.83-7.804c0-0.993-0.141-1.866-0.417-2.621
	c-0.279-0.755-0.581-1.33-0.908-1.728c-0.328-0.397-0.642-0.596-0.938-0.596c-0.498,0-1.342,0.586-2.533,1.758
	C459.594,50.229,459.216,50.577,458.997,50.735z"/>
<path fill="#CB2027" d="M487.622,42.634c0.079,1.191,0.119,2.531,0.119,4.021c0,3.495-0.283,6.538-0.848,9.129
	c-0.567,2.591-1.396,4.552-2.487,5.882c-1.093,1.331-2.443,1.996-4.052,1.996c-1.728,0-3.202-1.167-4.424-3.5
	c-1.222-2.333-2.169-5.053-2.845-8.161c-0.675-3.108-1.152-5.829-1.429-8.162c-0.279-2.333-0.447-4.016-0.508-5.048l5.72,1.221
	v1.698c0,5.64,0.302,9.969,0.908,12.988c0.605,3.018,1.405,4.527,2.398,4.527h0.357c1.806,0,3.177-1.137,4.11-3.411
	s1.399-5.426,1.399-9.458c0-1.41-0.069-2.741-0.208-3.991L487.622,42.634z"/>
<path fill="#CB2027" d="M509.785,46.208c-1.708-0.396-3.546-0.596-5.512-0.596c-2.858,0-5.207,0.417-7.044,1.251
	c-1.838,0.833-2.755,1.836-2.755,3.008c0,0.615,0.343,1.291,1.027,2.025c0.686,0.735,2.389,1.897,5.108,3.485
	c3.356,1.966,5.5,3.49,6.434,4.572c0.934,1.083,1.401,2.12,1.401,3.113v0.297c-0.101,1.073-1.48,2.091-4.142,3.053
	c-2.661,0.963-5.51,1.445-8.548,1.445c-1.669,0-3.179-0.179-4.529-0.536l0.924-2.8c1.469,0.576,3.099,0.864,4.885,0.864
	c1.927,0,3.605-0.303,5.034-0.909c1.43-0.606,2.146-1.405,2.146-2.398v-0.239c-0.06-0.476-0.453-1.052-1.177-1.728
	c-0.726-0.674-2.467-1.906-5.229-3.693c-1.747-1.132-3.172-2.086-4.273-2.859c-1.102-0.774-2.091-1.614-2.964-2.517
	c-0.874-0.904-1.31-1.684-1.31-2.338v-0.357c0-1.807,1.999-3.594,6-5.362c4.002-1.767,8.792-2.949,14.372-3.545L509.785,46.208z"/>
<path fill="#CB2027" d="M532.094,54.161l-0.805,4.021l-19.45,7.328l0.597-22.102l18.557-7.626l-0.178,4.35l-14.896,6.136
	l-0.237,6.969l11.29-5.123l-0.567,3.098l-10.604,5.51l0.118,3.396L532.094,54.161z"/>
</svg>
